<svg xmlns="http://www.w3.org/2000/svg" width="1550" height="360" viewBox="0 0 1550 360" fill="none">
<g transform="translate(40.0,55.0)">
<path d="M 100.989 78.875 A 52.000 52.000 0 0 1 149.011 78.875" stroke="#0F172A" stroke-width="17.5" stroke-linecap="round"/>
<path d="M 171.125 100.989 A 52.000 52.000 0 0 1 171.125 149.011" stroke="#0F172A" stroke-width="17.5" stroke-linecap="round"/>
<path d="M 149.011 171.125 A 52.000 52.000 0 0 1 100.989 171.125" stroke="#0F172A" stroke-width="17.5" stroke-linecap="round"/>
<path d="M 78.875 149.011 A 52.000 52.000 0 0 1 78.875 100.989" stroke="#0F172A" stroke-width="17.5" stroke-linecap="round"/>
<path d="M 101.250 131.250 L 119.250 148.750 L 156.250 113.000" stroke="#14B8A6" stroke-width="15.5" stroke-linecap="round" stroke-linejoin="round"/>
</g>
<path d="M 57.422 -2.067 C 87.380 -2.067 106.444 14.864 106.444 45.216 L 106.444 152.775 L 79.275 152.775 L 79.275 44.920 C 79.275 28.809 70.645 20.508 57.422 20.508 C 44.002 20.508 35.372 28.809 35.372 44.920 L 35.372 53.845 L 8.006 53.845 L 8.006 45.117 C 8.006 14.864 27.169 -2.067 57.422 -2.067 Z M 185.600 -2.363 C 219.036 -2.363 240.462 21.427 240.462 56.700 C 240.462 92.400 219.036 116.091 185.600 116.091 C 152.164 116.091 130.836 92.400 130.836 56.700 C 130.836 21.427 152.164 -2.363 185.600 -2.363 Z M 185.600 19.294 C 167.028 19.294 158.004 35.897 158.004 56.798 C 158.004 77.930 167.028 94.434 185.600 94.434 C 204.270 94.434 213.392 77.930 213.392 56.798 C 213.392 35.897 204.270 19.294 185.600 19.294 Z M 324.229 -2.067 C 351.397 -2.067 371.610 19.491 371.610 57.127 C 371.610 95.255 350.774 116.091 324.327 116.091 C 303.918 116.091 295.518 103.786 291.514 95.681 L 290.399 95.681 L 290.399 152.775 L 263.722 152.775 L 263.722 0.000 L 289.775 0.000 L 289.775 18.145 L 291.514 18.145 C 295.616 9.844 304.541 -2.067 324.229 -2.067 Z M 317.043 19.884 C 299.619 19.884 289.874 34.880 289.874 57.225 C 289.874 79.570 299.422 94.139 317.043 94.139 C 335.089 94.139 344.211 78.553 344.211 57.225 C 344.211 35.700 334.893 19.884 317.043 19.884 Z M 421.444 152.775 L 394.767 152.775 L 394.767 0.000 L 421.444 0.000 L 421.444 152.775 Z M 500.391 -2.363 C 525.919 -2.363 543.769 9.844 549.314 28.416 L 524.803 33.436 C 521.194 23.691 512.400 18.572 500.686 18.572 C 483.591 18.572 471.975 29.433 471.286 49.842 L 551.053 49.842 L 551.053 58.242 C 551.053 98.438 526.641 116.091 498.652 116.091 C 465.839 116.091 444.708 91.875 444.708 56.602 C 444.708 20.705 465.839 -2.363 500.391 -2.363 Z M 471.384 67.987 C 472.598 83.278 482.442 95.156 498.750 95.156 C 514.631 95.156 523.556 84.394 525.098 67.987 L 471.384 67.987 Z M 600.579 67.167 C 600.579 83.770 610.817 93.417 625.090 93.417 C 639.036 93.417 647.436 84.197 647.436 68.808 L 647.436 0.000 L 674.079 0.000 L 674.079 72.909 C 674.079 100.505 658.494 116.091 634.934 116.091 C 618.101 116.091 606.223 107.888 599.431 91.777 L 599.136 114.647 L 573.903 114.647 L 573.903 0.000 L 600.579 0.000 L 600.579 67.167 Z M 745.763 -2.363 C 774.670 -2.363 794.981 12.600 794.981 34.355 C 794.981 50.466 784.645 60.703 762.891 65.330 L 743.400 69.431 C 731.719 71.991 727.092 76.191 727.092 82.852 C 727.092 90.661 735.722 96.173 747.009 96.173 C 759.314 96.173 765.877 89.841 768.534 81.834 L 792.323 86.559 C 787.697 104.278 772.636 116.091 746.681 116.091 C 719.217 116.091 700.448 102.441 700.448 81.211 C 700.448 64.411 711.014 53.845 732.638 49.120 L 752.227 44.920 C 762.694 42.656 767.714 38.456 767.714 31.795 C 767.714 23.986 759.413 18.047 746.288 18.047 C 733.261 18.047 725.255 23.494 722.170 34.880 L 697.266 30.155 C 701.269 9.319 719.414 -2.363 745.763 -2.363 Z" fill="#0F172A" transform="translate(330.0,255.2) scale(1,-1)"/>
</svg>